<svg xmlns="http://www.w3.org/2000/svg" viewBox="0 0 1200 630" font-family="Georgia, 'Times New Roman', serif">
  <defs>
    <linearGradient id="bg" x1="0" y1="0" x2="0" y2="1">
      <stop offset="0" stop-color="#0B6B4D"/>
      <stop offset="1" stop-color="#074A36"/>
    </linearGradient>
  </defs>
  <rect width="1200" height="630" fill="#14201B"/>
  <rect width="1200" height="630" fill="url(#bg)"/>
  <rect x="36" y="36" width="1128" height="558" fill="none" stroke="#E63322" stroke-width="4"/>
  <text x="80" y="118" font-size="22" letter-spacing="8" fill="#E63322" font-weight="bold">ON THE RECORD  /  NO. 2</text>
  <line x1="80" y1="140" x2="1120" y2="140" stroke="#0E5C42" stroke-width="2"/>
  <text x="80" y="290" font-size="86" fill="#FBF8F2" font-weight="bold" font-style="italic">WOPA</text>
  <text x="80" y="372" font-size="40" fill="#DFEEE7" font-style="italic">Trust as the Product</text>
  <text x="80" y="470" font-size="22" letter-spacing="2" fill="#9AB3A7">WhatsApp invoicing &#183; UK tradespeople &#183; one solo founder</text>
  <text x="80" y="560" font-size="20" letter-spacing="4" fill="#E0A52E" font-weight="bold">THE SAUCE REPORT</text>
  <g transform="translate(930,315)">
    <circle r="200" fill="#F4ECD8"/>
    <path d="M -120 -150 q -20 -40 8 -58 q 18 28 6 62 z" fill="#D8CBAE"/>
    <path d="M 120 -150 q 20 -40 -8 -58 q -18 28 -6 62 z" fill="#D8CBAE"/>
    <circle cx="-72" cy="-32" r="92" fill="#EDE3CA"/>
    <circle cx="72" cy="-32" r="92" fill="#EDE3CA"/>
    <circle cx="-72" cy="-32" r="46" fill="#14201B"/>
    <circle cx="72" cy="-32" r="46" fill="#14201B"/>
    <circle cx="-86" cy="-46" r="14" fill="#FBF8F2"/>
    <circle cx="58" cy="-46" r="14" fill="#FBF8F2"/>
    <path d="M 0 6 q 18 4 0 50 q -18 -46 0 -50 z" fill="#E0A52E"/>
    <path d="M -150 70 q -40 60 14 150 q 30 -90 18 -150 z" fill="#D8CBAE"/>
    <path d="M 150 70 q 40 60 -14 150 q -30 -90 -18 -150 z" fill="#D8CBAE"/>
    <path d="M -60 70 q 60 90 120 0 q -8 70 -60 92 q -52 -22 -60 -92 z" fill="#0B6B4D"/>
    <path d="M -52 118 q 52 26 104 0" fill="none" stroke="#E0A52E" stroke-width="10" stroke-linecap="round"/>
  </g>
</svg>
